<svg xmlns="http://www.w3.org/2000/svg" xmlns:xlink="http://www.w3.org/1999/xlink" width="1920" height="1337" viewBox="0 0 1920 1337"><defs><style>.a,.e{fill:#fff;}.a{stroke:#707070;}.b{clip-path:url(#a);}.c{fill:url(#b);}.d{opacity:0.25;fill:url(#c);}.e{opacity:0.15;}</style><clipPath id="a"><rect class="a" width="1920" height="1337" transform="translate(0 1373)"/></clipPath><linearGradient id="b" x1="1" y1="0.314" x2="0" y2="0.448" gradientUnits="objectBoundingBox"><stop offset="0" stop-color="#d85ed7" stop-opacity="0.2"/><stop offset="1" stop-color="#d85ed7"/></linearGradient><linearGradient id="c" x1="1" y1="0.244" x2="0" y2="0.469" gradientUnits="objectBoundingBox"><stop offset="0" stop-color="#d85ed7"/><stop offset="1" stop-color="#fff"/></linearGradient></defs><g class="b" transform="translate(0 -1373)"><path class="c" d="M2019.486,434.605c338.5,85.528,553.611-132.039,847.605-132.039s340.654,51.112,607.573,51.112,413.783-164.466,485.454-312.524c0,76.583-2.873,1433.9-2.873,1433.9l-1937.759-.588Z" transform="translate(-2030.618 1313.145)"/><path class="d" d="M2020.93,565.491C3246.3,734.327,3510.165-13.29,3991.144,396.5v738.634l-1970.214-.6Z" transform="translate(-2060.46 1651.865)"/><ellipse class="e" cx="274" cy="274" rx="274" ry="274" transform="translate(1460.598 2092)"/></g></svg>