<svg xmlns="http://www.w3.org/2000/svg" xmlns:xlink="http://www.w3.org/1999/xlink" width="768" height="1410.8" viewBox="0 0 768 1410.8"><defs><style>.a,.e{fill:#fff;}.a{stroke:#707070;}.b{clip-path:url(#a);}.c{fill:url(#b);}.d{opacity:0.25;fill:url(#c);}.e{opacity:0.15;}</style><clipPath id="a"><rect class="a" width="768" height="1410.8" transform="translate(0 1373)"/></clipPath><linearGradient id="b" x1="0.016" y1="0.363" x2="1.315" y2="0.338" gradientUnits="objectBoundingBox"><stop offset="0" stop-color="#d85ed7"/><stop offset="1" stop-color="#fff"/></linearGradient><linearGradient id="c" x1="1" y1="0.244" x2="0" y2="0.469" gradientUnits="objectBoundingBox"><stop offset="0" stop-color="#d85ed7"/><stop offset="1" stop-color="#fe9efd"/></linearGradient></defs><g class="b" transform="translate(0 -1373)"><path class="c" d="M2019.486,221.033c135.4,39.1,221.444-60.366,339.042-60.366s136.261,23.367,243.029,23.367,165.513-75.191,194.181-142.881c0,35.012-1.149,1455.626-1.149,1455.626l-775.1-.269Z" transform="translate(-2023.939 1324.366)"/><path class="d" d="M2020.93,389.4c490.148,67.535,595.694-231.512,788.085-67.6V1267.26l-788.085-.239Z" transform="translate(-2036.742 1542.339)"/><circle class="e" cx="109.6" cy="109.6" r="109.6" transform="translate(584.239 1914.6)"/></g></svg>