<svg xmlns="http://www.w3.org/2000/svg" xmlns:xlink="http://www.w3.org/1999/xlink" width="768" height="1101.933" viewBox="0 0 768 1101.933"><defs><style>.a,.f{fill:#fff;}.b{clip-path:url(#a);}.c{fill:#d85ed7;}.d,.e{opacity:0.25;}.d{fill:url(#b);}.e{fill:url(#c);}.f{opacity:0.15;}</style><clipPath id="a"><path class="a" d="M258.447,417.933h-.029a409.288,409.288,0,0,1-89.209-9.806,379.065,379.065,0,0,1-40.671-11.485,331.43,331.43,0,0,1-36.862-15.191,269.632,269.632,0,0,1-32.161-18.386A204.129,204.129,0,0,1,32.944,342a145.986,145.986,0,0,1-20.09-23.242,103.553,103.553,0,0,1-12.718-24.9c0,28.453-.038,46.122-.075,63.21v.069C.029,371.627,0,385.315,0,404.016V-684H768V336.856a89.139,89.139,0,0,1-13.54,12,70.886,70.886,0,0,1-14.067,7.794c-8.979,3.688-18.825,5.481-30.1,5.481a159.51,159.51,0,0,1-27.184-2.676c-9.476-1.628-19.36-3.83-29.824-6.161l-.009,0-.228-.051c-2.464-.549-5.012-1.116-7.561-1.677-11.764-2.588-24.526-5.26-38.13-7.264a291.084,291.084,0,0,0-42.768-3.3c-43.854,0-86.572,11.363-130.595,34.739a355.984,355.984,0,0,1-86.8,32.225A394.613,394.613,0,0,1,258.447,417.933Z"/></clipPath><linearGradient id="b" y1="0.268" x2="1" y2="0.253" gradientUnits="objectBoundingBox"><stop offset="0" stop-color="#6c2f6c"/><stop offset="1" stop-color="#d85ed7"/></linearGradient><linearGradient id="c" x1="1" y1="0.732" x2="0" y2="0.747" gradientUnits="objectBoundingBox"><stop offset="0" stop-color="#d85ed7"/><stop offset="1" stop-color="#fff"/></linearGradient></defs><g class="b" transform="translate(0 684)"><rect class="c" width="781.6" height="1174" transform="translate(-6.8 -742)"/><path class="d" d="M2019.486,404.849c267.441,67.574,508.24-104.073,771-104.073S3357.977,398.3,3431.714,398.3s108.262-45.425,119.9-75.671c0,60.506-1.15,499.072-1.15,499.072l-1530.98-.465Z" transform="translate(-2038.486 -300.706)"/><path class="e" d="M3046.777,561.323c-638.023-88.869-775.412,304.649-1025.848,88.95V272.011l1025.848.315Z" transform="translate(-2028.975 -1014.011)"/><circle class="f" cx="159.6" cy="159.6" r="159.6" transform="translate(-83.2 -829.393)"/></g></svg>