<svg xmlns="http://www.w3.org/2000/svg" xmlns:xlink="http://www.w3.org/1999/xlink" width="320" height="896.208" viewBox="0 0 320 896.208"><defs><style>.a,.f{fill:#fff;}.b{clip-path:url(#a);}.c{fill:#d85ed7;}.d,.e{opacity:0.25;}.d{fill:url(#b);}.e{fill:url(#c);}.f{opacity:0.15;}</style><clipPath id="a"><path class="a" d="M210.195,896.208h-.023A335.094,335.094,0,0,1,152,891.114V0H472V834.018c-4.291-.253-8.6-.382-12.808-.382-35.675,0-70.421,9.242-106.224,28.253A289.532,289.532,0,0,1,282.375,888.1,320.951,320.951,0,0,1,210.195,896.208Z" transform="translate(0 -684)"/></clipPath><linearGradient id="b" y1="0.268" x2="1" y2="0.253" gradientUnits="objectBoundingBox"><stop offset="0" stop-color="#6c2f6c"/><stop offset="1" stop-color="#d85ed7"/></linearGradient><linearGradient id="c" x1="1" y1="0.732" x2="0" y2="0.747" gradientUnits="objectBoundingBox"><stop offset="0" stop-color="#d85ed7"/><stop offset="1" stop-color="#fe9efd"/></linearGradient></defs><g class="b" transform="translate(-152 684)"><rect class="c" width="635.679" height="954.82" transform="translate(-5.53 -731.172)"/><path class="d" d="M2019.486,385.419c217.511,54.958,413.354-84.643,627.058-84.643S3108.087,380.1,3168.058,380.1s88.05-36.944,97.517-61.544c0,49.21-.935,405.9-.935,405.9l-1245.154-.378Z" transform="translate(-2034.939 -428.418)"/><path class="e" d="M2855.257,507.31c-518.908-72.278-630.647,247.772-834.327,72.344V272.011l834.327.256Z" transform="translate(-2027.474 -1003.183)"/><circle class="f" cx="129.803" cy="129.803" r="129.803" transform="translate(-67.667 -802.249)"/></g></svg>