<svg xmlns="http://www.w3.org/2000/svg" xmlns:xlink="http://www.w3.org/1999/xlink" width="200" height="200" viewBox="0 0 200 200"><defs><style>.a{fill:#fff;}.b{fill:url(#a);}.c{fill:url(#d);}.d{filter:url(#e);}.e{filter:url(#b);}</style><linearGradient id="a" x1="0.96" y1="1.054" x2="0.214" y2="0.235" gradientUnits="objectBoundingBox"><stop offset="0" stop-color="#6c2f6c"/><stop offset="1" stop-color="#d85ed7"/></linearGradient><filter id="b" x="26.5" y="31.5" width="167.515" height="117.521" filterUnits="userSpaceOnUse"><feOffset dx="10" dy="10" input="SourceAlpha"/><feGaussianBlur stdDeviation="7.5" result="c"/><feFlood flood-opacity="0.2"/><feComposite operator="in" in2="c"/><feComposite in="SourceGraphic"/></filter><linearGradient id="d" x1="0.795" y1="1" x2="0.157" gradientUnits="objectBoundingBox"><stop offset="0" stop-color="#ff784f"/><stop offset="1" stop-color="#ffaf00"/></linearGradient><filter id="e" x="72.5" y="76.908" width="76.459" height="112.113" filterUnits="userSpaceOnUse"><feOffset dx="10" dy="10" input="SourceAlpha"/><feGaussianBlur stdDeviation="7.5" result="f"/><feFlood flood-opacity="0.2"/><feComposite operator="in" in2="f"/><feComposite in="SourceGraphic"/></filter></defs><g transform="translate(-1384.001 -1227)"><path class="a" d="M74.753,174.6c-86.6.834-135.7-74.19-72.965-104.2S64.521-29.938,117.707-25.164s55.357,58.22,55.76,97.77-42.8,33.258-42.118,57.811S121.516,174.147,74.753,174.6Z" transform="translate(1410.531 1252.396)"/><g transform="translate(4 1.521)"><g class="e" transform="matrix(1, 0, 0, 1, 1380, 1225.48)"><path class="b" d="M22.282,223.116h.064a29.841,29.841,0,0,1,59.112-3.56c.333-.013.679-.026,1.012-.026a24.1,24.1,0,0,1,23.064,17.109c.461-.038.935-.064,1.409-.064a15.572,15.572,0,0,1,.013,31.144H22.3a22.3,22.3,0,0,1-.013-44.6Z" transform="translate(39 -151.2)"/></g><g transform="translate(1465 1314.888)"><g class="d" transform="matrix(1, 0, 0, 1, -85, -89.41)"><path class="c" d="M167.135,20.676a1.969,1.969,0,0,0-1.642-.883H155.232l4.3-17.351A1.966,1.966,0,0,0,157.628,0h-11.8a1.966,1.966,0,0,0-1.907,1.49l-7.865,31.59a1.966,1.966,0,0,0,1.907,2.442h9.278l-2.949,11.8h-6.329a1.966,1.966,0,0,0-1.667,3.009L146.13,66.19a1.962,1.962,0,0,0,1.509.918c.052,0,.106.006.157.006a1.971,1.971,0,0,0,1.48-.672L163.041,50.58a1.967,1.967,0,0,0-1.48-3.26h-4.883L167.3,22.533A1.966,1.966,0,0,0,167.135,20.676Z" transform="translate(-51 89.41)"/></g></g></g></g></svg>