<svg xmlns="http://www.w3.org/2000/svg" xmlns:xlink="http://www.w3.org/1999/xlink" width="200" height="200" viewBox="0 0 200 200"><defs><style>.a{fill:#fff;}.b{fill:url(#a);}.c{fill:url(#d);}.d{filter:url(#b);}</style><linearGradient id="a" x1="0.903" y1="1.032" x2="0.033" y2="0.175" gradientUnits="objectBoundingBox"><stop offset="0" stop-color="#6c2f6c"/><stop offset="1" stop-color="#d85ed7"/></linearGradient><filter id="b" x="36.5" y="27.5" width="147.186" height="165" filterUnits="userSpaceOnUse"><feOffset dx="10" dy="10" input="SourceAlpha"/><feGaussianBlur stdDeviation="7.5" result="c"/><feFlood flood-opacity="0.2"/><feComposite operator="in" in2="c"/><feComposite in="SourceGraphic"/></filter><linearGradient id="d" x1="0.818" y1="0.841" x2="0.213" y2="0.146" gradientUnits="objectBoundingBox"><stop offset="0" stop-color="#ff784f"/><stop offset="1" stop-color="#ffaf00"/></linearGradient></defs><g transform="translate(-1123 -1227)"><path class="a" d="M-14827.622,1330.547c0-40.085,19.458-61.748,54.762-61.811s21.5-31.511,64.091-30.4c25.086.652,36.912,22.728,43.809,61.915s36.638,31.92,37.319,61-16.631,77.053-72.609,77.053S-14827.622,1407.192-14827.622,1330.547Z" transform="translate(15950.622 -11.304)"/><g class="d" transform="matrix(1, 0, 0, 1, 1123, 1227)"><path class="b" d="M102.067,32.558l0-.093c-.052-1.153-.087-2.372-.108-3.729A12.718,12.718,0,0,0,89.981,16.276c-13.8-.77-24.47-5.269-33.59-14.158l-.078-.074a7.68,7.68,0,0,0-10.437,0l-.078.074c-9.12,8.889-19.793,13.388-33.59,14.159A12.717,12.717,0,0,0,.234,28.737C.213,30.084.178,31.3.126,32.465l-.005.217c-.268,14.069-.6,31.578,5.256,47.471a60.429,60.429,0,0,0,14.5,22.582c7.288,7.112,16.833,12.758,28.37,16.781a8.784,8.784,0,0,0,1.163.317,8.587,8.587,0,0,0,3.376,0,8.812,8.812,0,0,0,1.167-.319c11.523-4.03,21.059-9.679,28.34-16.79a60.514,60.514,0,0,0,14.5-22.587C102.667,64.2,102.335,46.654,102.067,32.558ZM51.093,89.907A29.906,29.906,0,1,1,81,60,29.939,29.939,0,0,1,51.093,89.907Zm0,0" transform="translate(49 40)"/></g><ellipse class="c" cx="29.996" cy="29.996" rx="29.996" ry="29.996" transform="translate(1193 1297.023)"/><path class="a" d="M142.975,158.457a22.533,22.533,0,1,0,22.533,22.533A22.559,22.559,0,0,0,142.975,158.457Zm13.378,18.289L140.21,192.889a3.468,3.468,0,0,1-4.907,0l-6.169-6.169a3.469,3.469,0,0,1,4.907-4.907l3.716,3.716,13.69-13.689a3.469,3.469,0,0,1,4.907,4.907Zm0,0" transform="translate(1080.558 1146.031)"/></g></svg>