<svg xmlns="http://www.w3.org/2000/svg" xmlns:xlink="http://www.w3.org/1999/xlink" width="200" height="200" viewBox="0 0 200 200"><defs><style>.a{fill:#fff;}.b{fill:url(#a);}.c{fill:url(#d);}.d{filter:url(#b);}</style><linearGradient id="a" x1="1" y1="1" x2="0" gradientUnits="objectBoundingBox"><stop offset="0" stop-color="#6c2f6c"/><stop offset="1" stop-color="#d85ed7"/></linearGradient><filter id="b" x="27.5" y="32.5" width="165" height="155" filterUnits="userSpaceOnUse"><feOffset dx="10" dy="10" input="SourceAlpha"/><feGaussianBlur stdDeviation="7.5" result="c"/><feFlood flood-opacity="0.2"/><feComposite operator="in" in2="c"/><feComposite in="SourceGraphic"/></filter><linearGradient id="d" x1="0.883" y1="1" x2="0.049" y2="0.062" gradientUnits="objectBoundingBox"><stop offset="0" stop-color="#ff784f"/><stop offset="1" stop-color="#ffaf00"/></linearGradient></defs><g transform="translate(-320 -1227)"><path class="a" d="M-14831.557,1334.66c0-39.528,60.271-35.765,81.235-87.7s112.905-25.841,104.741,17-24.623,52.986,6.581,85.486-41.906,85.49-104.38,63.548S-14831.557,1374.188-14831.557,1334.66Z" transform="translate(15151.557 8.843)"/><g transform="translate(-20 -5)"><g class="d" transform="matrix(1, 0, 0, 1, 340, 1232)"><rect class="b" width="120" height="110" rx="20" transform="translate(40 45)"/></g><rect class="a" width="100" height="75" rx="10" transform="translate(390 1302)"/><path class="c" d="M15176.1,35.759a4.075,4.075,0,0,1,0-5.806,4.163,4.163,0,0,1,5.856,0,27.13,27.13,0,0,0,38.081,0,4.169,4.169,0,0,1,5.86,0,4.07,4.07,0,0,1,0,5.806,35.471,35.471,0,0,1-49.8,0Zm37.326-27.547a8.285,8.285,0,0,1,16.57,0,8.285,8.285,0,0,1-16.57,0Zm-41.428,0a8.285,8.285,0,0,1,16.569,0,8.285,8.285,0,0,1-16.569,0Z" transform="translate(-14761.002 1316.834)"/><circle class="a" cx="5.5" cy="5.5" r="5.5" transform="translate(390 1284)"/><circle class="a" cx="5.5" cy="5.5" r="5.5" transform="translate(403 1284)"/><circle class="a" cx="5.5" cy="5.5" r="5.5" transform="translate(416 1284)"/></g></g></svg>