<svg xmlns="http://www.w3.org/2000/svg" width="133.105" height="36" viewBox="0 0 133.105 36"><defs><style>.a,.b{fill:#fff;}.a{stroke:rgba(0,0,0,0);stroke-miterlimit:10;}</style></defs><g transform="translate(-39.499 -48.5)"><path class="a" d="M29,35H6a6.007,6.007,0,0,1-6-6V6A6.007,6.007,0,0,1,6,0H29a6.007,6.007,0,0,1,6,6V29A6.007,6.007,0,0,1,29,35ZM16.7,6.921v4.621l-2.939.139v4.237H16.74V24.6a4.529,4.529,0,0,0,1.5,3.607A6.052,6.052,0,0,0,22.3,29.5a22.954,22.954,0,0,0,3.167-.246,12.4,12.4,0,0,0,2.783-.664l-.806-4.69H25.593a1.789,1.789,0,0,1-1.154-.3,1.2,1.2,0,0,1-.35-.964V15.917h4.235v-4.41H24.089V6.921Z" transform="translate(39.999 49)"/><path class="b" d="M45.109,8.48a11.771,11.771,0,0,1,3.4.991L47.775,14H42.48a4.521,4.521,0,0,0-1.776.279,1.655,1.655,0,0,0-.888.993,6.333,6.333,0,0,0-.261,2.072,6.5,6.5,0,0,0,.261,2.091,1.648,1.648,0,0,0,.888,1.01,4.521,4.521,0,0,0,1.776.279,52.652,52.652,0,0,0,5.607-.244l.662,4.561A16.454,16.454,0,0,1,41.157,26.5a13.734,13.734,0,0,1-5.45-.887A5.58,5.58,0,0,1,32.8,22.741a13.237,13.237,0,0,1-.905-5.4,13.219,13.219,0,0,1,.905-5.4,5.582,5.582,0,0,1,2.925-2.874,13.972,13.972,0,0,1,5.5-.888A26.139,26.139,0,0,1,45.109,8.48Z" transform="translate(48.088 51.778)"/><path class="b" d="M53.368,21.387a1.093,1.093,0,0,0,.418.959,2.33,2.33,0,0,0,1.323.3h1.185l.8,4.667a6.658,6.658,0,0,1-2.28.66,18.977,18.977,0,0,1-2.84.245,6.613,6.613,0,0,1-4.318-1.289,4.39,4.39,0,0,1-1.567-3.588V3.347h7.279Z" transform="translate(52.882 50.136)"/><path class="b" d="M70.374,9.071a5.763,5.763,0,0,1,3.065,2.892,12.808,12.808,0,0,1,.958,5.45,12.357,12.357,0,0,1-.958,5.344,5.776,5.776,0,0,1-3.065,2.857,15,15,0,0,1-5.694.887,15.1,15.1,0,0,1-5.729-.887,5.771,5.771,0,0,1-3.065-2.857,12.357,12.357,0,0,1-.958-5.344,12.808,12.808,0,0,1,.958-5.45,5.759,5.759,0,0,1,3.065-2.892,15.1,15.1,0,0,1,5.729-.888A14.993,14.993,0,0,1,70.374,9.071ZM63.357,13.46a2,2,0,0,0-.592,1.219,15.488,15.488,0,0,0-.174,2.734,14.645,14.645,0,0,0,.174,2.647,1.885,1.885,0,0,0,.592,1.183,2.21,2.21,0,0,0,1.323.315,2.14,2.14,0,0,0,1.289-.315,1.891,1.891,0,0,0,.592-1.183,14.77,14.77,0,0,0,.174-2.647,15.62,15.62,0,0,0-.174-2.734,2.006,2.006,0,0,0-.592-1.219,2.061,2.061,0,0,0-1.289-.331A2.128,2.128,0,0,0,63.357,13.46Z" transform="translate(55.858 51.778)"/><path class="b" d="M89.706,8.548V25.961H83.96L83.3,23.417a12.4,12.4,0,0,1-3.4,2.3,8.912,8.912,0,0,1-3.57.731,5.406,5.406,0,0,1-3.848-1.236,4.778,4.778,0,0,1-1.306-3.641V8.548h7.313V19.239a1.031,1.031,0,0,0,.3.817,1.494,1.494,0,0,0,.993.263,8.541,8.541,0,0,0,2.577-.419V8.548Z" transform="translate(61.341 51.902)"/><path class="b" d="M105.975,3.347V27.726h-5.815l-.593-2.856a5.9,5.9,0,0,1-2.386,2.386,8.173,8.173,0,0,1-4.022.887,5.258,5.258,0,0,1-4.8-2.367q-1.5-2.369-1.5-6.966a16.207,16.207,0,0,1,.731-5.449,4.906,4.906,0,0,1,2.177-2.753,7.759,7.759,0,0,1,3.709-.784A8.8,8.8,0,0,1,98.8,11.287q-.139-2.437-.139-3.8V3.347ZM98.662,21.77V15.05A6.121,6.121,0,0,0,96.4,14.6a2.2,2.2,0,0,0-1.219.279,1.79,1.79,0,0,0-.609,1.148,13.95,13.95,0,0,0-.19,2.718,10.464,10.464,0,0,0,.19,2.333,1.53,1.53,0,0,0,.575.993,2.321,2.321,0,0,0,1.149.226A5.205,5.205,0,0,0,98.662,21.77Z" transform="translate(66.629 50.136)"/></g></svg>