<svg xmlns="http://www.w3.org/2000/svg" width="83" height="55" viewBox="0 0 83 55"><defs><style>.a{fill:#fff;}.b{fill:#ff5f00;}.c{fill:#eb001b;}.d{fill:#f79e1b;}</style></defs><rect class="a" width="83" height="55" rx="10"/><g transform="translate(11 9)"><rect class="b" width="18.155" height="29.653" transform="translate(21.438 4.034)"/><path class="c" d="M30.751,26.309a18.826,18.826,0,0,1,7.2-14.824,18.857,18.857,0,1,0,0,29.653A18.826,18.826,0,0,1,30.751,26.309Z" transform="translate(-7.444 -7.446)"/><path class="d" d="M120.171,65.093v-.608h.262V64.36h-.623v.126h.246v.608Zm1.21,0V64.36h-.189l-.22.524-.22-.524h-.189v.733h.136v-.555l.2.477h.141l.2-.477v.555Z" transform="translate(-60.951 -34.545)"/><path class="d" d="M96.2,26.3A18.857,18.857,0,0,1,65.69,41.126a18.857,18.857,0,0,0,0-29.653A18.857,18.857,0,0,1,96.2,26.3Z" transform="translate(-35.18 -7.44)"/></g></svg>