<svg width="117" height="36" viewBox="0 0 117 36" fill="none" xmlns="http://www.w3.org/2000/svg">
<path d="M29.5 36H6.5C4.90927 35.9981 3.38422 35.3654 2.25941 34.2406C1.13459 33.1158 0.501853 31.5907 0.5 30L0.5 7C0.501853 5.40927 1.13459 3.88422 2.25941 2.75941C3.38422 1.63459 4.90927 1.00185 6.5 1H29.5C31.0907 1.00185 32.6158 1.63459 33.7406 2.75941C34.8654 3.88422 35.4981 5.40927 35.5 7V30C35.4981 31.5907 34.8654 33.1158 33.7406 34.2406C32.6158 35.3654 31.0907 35.9981 29.5 36V36ZM17.2 7.921V12.542L14.261 12.681V16.918H17.24V25.6C17.205 26.2751 17.3216 26.9494 17.5811 27.5735C17.8407 28.1977 18.2366 28.7558 18.74 29.207C19.8918 30.1159 21.3347 30.5754 22.8 30.5C23.8601 30.4912 24.9183 30.409 25.967 30.254C26.9172 30.1408 27.8511 29.918 28.75 29.59L27.944 24.9H26.093C25.6853 24.9349 25.278 24.829 24.939 24.6C24.8131 24.4752 24.7163 24.324 24.6558 24.1573C24.5953 23.9906 24.5725 23.8126 24.589 23.636V16.917H28.824V12.507H24.589V7.921H17.2Z" fill="white" stroke="black"/>
<path d="M46.2846 23.04C46.2685 23.222 46.2984 23.4052 46.3714 23.5728C46.4444 23.7403 46.5583 23.8868 46.7026 23.999C47.1041 24.228 47.5646 24.3324 48.0256 24.299H49.2106L50.0106 28.966C49.2963 29.3208 48.524 29.5443 47.7306 29.626C46.7914 29.7788 45.8421 29.8606 44.8906 29.871C43.3447 29.9601 41.8166 29.5039 40.5726 28.582C40.0516 28.146 39.6389 27.595 39.3669 26.9724C39.095 26.3498 38.9713 25.6725 39.0056 24.994V5H46.2846V23.04Z" fill="white"/>
<path d="M68.4582 11.8997C69.8084 12.4422 70.9033 13.4754 71.5232 14.7917C72.2359 16.5169 72.5629 18.3769 72.4812 20.2417C72.562 22.072 72.2348 23.8974 71.5232 25.5857C70.8952 26.8881 69.8015 27.9076 68.4582 28.4427C66.6354 29.1036 64.7017 29.4048 62.7642 29.3297C60.8152 29.4068 58.8697 29.1056 57.0352 28.4427C55.6917 27.908 54.5979 26.8884 53.9702 25.5857C53.2587 23.8974 52.9315 22.072 53.0122 20.2417C52.9306 18.3769 53.2576 16.5169 53.9702 14.7917C54.5899 13.4751 55.6849 12.4419 57.0352 11.8997C58.8696 11.2365 60.8151 10.9349 62.7642 11.0117C64.7018 10.9367 66.6355 11.2383 68.4582 11.8997V11.8997ZM61.4412 16.2887C61.1081 16.6138 60.8987 17.0449 60.8492 17.5077C60.7106 18.4121 60.6524 19.327 60.6752 20.2417C60.6531 21.1275 60.7113 22.0135 60.8492 22.8887C60.8972 23.3416 61.1075 23.7618 61.4412 24.0717C61.8382 24.3132 62.3011 24.4234 62.7642 24.3867C63.2164 24.4209 63.6678 24.3106 64.0532 24.0717C64.3866 23.7615 64.5968 23.3415 64.6452 22.8887C64.7825 22.0134 64.8408 21.1275 64.8192 20.2417C64.8414 19.327 64.7832 18.4122 64.6452 17.5077C64.5953 17.045 64.386 16.6141 64.0532 16.2887C63.672 16.0389 63.2187 15.9225 62.7642 15.9577C62.2989 15.9199 61.834 16.0362 61.4412 16.2887V16.2887Z" fill="white"/>
<path d="M93.5425 12V29.413H87.7965L87.1365 26.869C86.1388 27.8192 84.9897 28.5965 83.7365 29.169C82.6095 29.656 81.3941 29.9048 80.1665 29.9C78.7723 30.001 77.3931 29.558 76.3185 28.664C75.859 28.1817 75.5055 27.6086 75.2806 26.9816C75.0557 26.3545 74.9643 25.6874 75.0125 25.023V12H82.3255V22.691C82.3129 22.8408 82.3332 22.9916 82.3851 23.1327C82.4369 23.2738 82.5189 23.4019 82.6255 23.508C82.915 23.7103 83.2668 23.8035 83.6185 23.771C84.4939 23.7642 85.363 23.6229 86.1955 23.352V12H93.5425Z" fill="white"/>
<path d="M116.127 5V29.379H110.312L109.719 26.523C109.173 27.5337 108.344 28.3629 107.333 28.909C106.09 29.5432 104.706 29.8485 103.311 29.796C102.372 29.8673 101.432 29.6853 100.587 29.2689C99.7431 28.8525 99.0261 28.2171 98.5111 27.429C97.5111 25.8497 97.0111 23.5277 97.0111 20.463C96.9427 18.6183 97.1899 16.7754 97.7421 15.014C98.1035 13.8593 98.8788 12.8788 99.9191 12.261C101.072 11.697 102.346 11.4276 103.628 11.477C105.514 11.3809 107.38 11.8938 108.952 12.94C108.859 11.3153 108.813 10.0487 108.813 9.14V5H116.127ZM108.814 23.423V16.703C108.095 16.411 107.328 16.2583 106.552 16.253C106.127 16.2261 105.704 16.323 105.333 16.532C104.993 16.8249 104.776 17.2346 104.724 17.68C104.572 18.5776 104.509 19.488 104.534 20.398C104.51 21.1803 104.574 21.9629 104.724 22.731C104.78 23.1241 104.986 23.4801 105.299 23.724C105.657 23.8963 106.052 23.9741 106.448 23.95C107.267 23.963 108.078 23.7824 108.814 23.423V23.423Z" fill="white"/>
</svg>
