<svg xmlns="http://www.w3.org/2000/svg" xmlns:xlink="http://www.w3.org/1999/xlink" width="83" height="55" viewBox="0 0 83 55"><defs><style>.a{fill:#fff;}.b{fill:url(#a);}</style><linearGradient id="a" x1="-3.232" y1="7.113" x2="-3.231" y2="7.101" gradientUnits="objectBoundingBox"><stop offset="0" stop-color="#222357"/><stop offset="1" stop-color="#254aa5"/></linearGradient></defs><g transform="translate(-0.333)"><rect class="a" width="83" height="55" rx="10" transform="translate(0.333 0)"/><g transform="translate(11.333 17.883)"><path class="b" d="M31.616,6.311c-.035,2.75,2.451,4.285,4.323,5.2,1.924.936,2.57,1.536,2.563,2.374-.015,1.281-1.535,1.847-2.957,1.869a10.318,10.318,0,0,1-5.072-1.206l-.894,4.184a14.869,14.869,0,0,0,5.492,1.013c5.188,0,8.582-2.561,8.6-6.531.02-5.039-6.97-5.318-6.922-7.57.016-.683.668-1.412,2.1-1.6a9.3,9.3,0,0,1,4.87.854L44.584.848A13.242,13.242,0,0,0,39.962,0c-4.883,0-8.318,2.6-8.345,6.311M52.927.349a2.251,2.251,0,0,0-2.1,1.4L43.415,19.444H48.6l1.032-2.851h6.335l.6,2.851h4.569L57.146.349H52.927m.725,5.158,1.5,7.17h-4.1l2.6-7.17M25.331.349,21.245,19.444h4.94L30.269.349H25.331m-7.308,0-5.142,13L10.8,2.295A2.3,2.3,0,0,0,8.523.349H.117L0,.9A20.565,20.565,0,0,1,4.874,2.528,2.091,2.091,0,0,1,6.047,4.206L9.986,19.444h5.221l8-19.095H18.023"/></g></g></svg>