<svg xmlns="http://www.w3.org/2000/svg" xmlns:xlink="http://www.w3.org/1999/xlink" width="480" height="1420" viewBox="0 0 480 1420"><defs><style>.a,.e{fill:#fff;}.a{stroke:#707070;}.b{clip-path:url(#a);}.c{fill:url(#b);}.d{opacity:0.25;fill:url(#c);}.e{opacity:0.15;}</style><clipPath id="a"><rect class="a" width="480" height="1420" transform="translate(175 1477)"/></clipPath><linearGradient id="b" x1="1" y1="0.314" x2="0" y2="0.448" gradientUnits="objectBoundingBox"><stop offset="0" stop-color="#15aed6" stop-opacity="0.2"/><stop offset="1" stop-color="#15aed6"/></linearGradient><linearGradient id="c" x1="1" y1="0.244" x2="0" y2="0.469" gradientUnits="objectBoundingBox"><stop offset="0" stop-color="#15aed6"/><stop offset="1" stop-color="#fff"/></linearGradient></defs><g class="b" transform="translate(-175 -1477)"><path class="c" d="M2019.486,211.214c146.31,36.968,239.287-57.071,366.359-57.071s147.24,22.092,262.61,22.092S2827.3,105.148,2858.282,41.153c0,33.1-1.242,1546.173-1.242,1546.173l-837.554-.254Z" transform="translate(-2024.298 1323.763)"/><path class="d" d="M2020.93,398.861c529.64,72.976,643.69-250.165,851.583-73.042V1333.752l-851.583-.258Z" transform="translate(-2038.016 1577.899)"/><circle class="e" cx="118.431" cy="118.431" r="118.431" transform="translate(631.312 1958.237)"/></g></svg>