<svg xmlns="http://www.w3.org/2000/svg" xmlns:xlink="http://www.w3.org/1999/xlink" width="480" height="1023.101" viewBox="0 0 480 1023.101"><defs><style>.a,.f{fill:#fff;}.b{clip-path:url(#a);}.c{fill:#15aed6;}.d,.e{opacity:0.25;}.d{fill:url(#b);}.e{fill:url(#c);}.f{opacity:0.15;}</style><clipPath id="a"><path class="a" d="M239.958,1023.1h-.027c-42.329,0-84.837-7.12-122.931-20.582V0H597V960.975c-9.9-2.159-21.728-4.612-34.385-6.426A268.563,268.563,0,0,0,524.2,951.67c-40.718,0-80.381,10.55-121.254,32.254a330.527,330.527,0,0,1-80.587,29.92A366.388,366.388,0,0,1,239.958,1023.1Z" transform="translate(0 -684)"/></clipPath><linearGradient id="b" y1="0.268" x2="1" y2="0.253" gradientUnits="objectBoundingBox"><stop offset="0" stop-color="#15aed6"/><stop offset="1" stop-color="#0b576b"/></linearGradient><linearGradient id="c" x1="1" y1="0.732" x2="0" y2="0.747" gradientUnits="objectBoundingBox"><stop offset="0" stop-color="#15aed6"/><stop offset="1" stop-color="#fff"/></linearGradient></defs><g class="b" transform="translate(-117 684)"><rect class="c" width="725.684" height="1090.012" transform="translate(-6.314 -737.851)"/><path class="d" d="M2019.486,397.4c248.308,62.74,471.88-96.628,715.842-96.628s526.893,90.552,595.354,90.552,100.517-42.175,111.325-70.257c0,56.178-1.068,463.368-1.068,463.368l-1421.454-.432Z" transform="translate(-2037.127 -349.644)"/><path class="e" d="M2973.388,540.626c-592.379-82.512-719.939,282.854-952.458,82.587v-351.2l952.458.292Z" transform="translate(-2028.4 -1009.862)"/><circle class="f" cx="148.182" cy="148.182" r="148.182" transform="translate(-77.248 -818.991)"/></g></svg>