<svg xmlns="http://www.w3.org/2000/svg" xmlns:xlink="http://www.w3.org/1999/xlink" width="1920" height="1044.832" viewBox="0 0 1920 1044.832"><defs><style>.a,.f{fill:#fff;}.b{clip-path:url(#a);}.c{fill:#15aed6;}.d,.e{opacity:0.25;}.d{fill:url(#b);}.e{fill:url(#c);}.f{opacity:0.15;}</style><clipPath id="a"><path class="a" d="M15821.794,1044.832h-.073a1034.334,1034.334,0,0,1-114.047-6.346,1016.687,1016.687,0,0,1-108.976-18.169,947.65,947.65,0,0,1-101.678-28.712,828.365,828.365,0,0,1-92.153-37.978,674.153,674.153,0,0,1-80.4-45.966,510.308,510.308,0,0,1-66.428-52.674c-9.781-9.266-18.959-18.839-27.277-28.453a335.055,335.055,0,0,1-22.947-29.651,281.3,281.3,0,0,1-18.34-30.688,239.876,239.876,0,0,1-13.455-31.567c0,70.794-.095,114.831-.186,157.417l0,.78v.557c-.078,36.071-.151,70.141-.151,116.659V0h1920V842.137c-5.471,5.885-11.117,11.406-16.777,16.412a205.265,205.265,0,0,1-17.074,13.587,183,183,0,0,1-17.406,10.958,170.819,170.819,0,0,1-35.918,14.816,183.565,183.565,0,0,1-18.574,4.25c-6.125,1.074-12.525,1.884-19.025,2.406-6.254.5-12.816.759-19.5.759a322.652,322.652,0,0,1-33.219-1.817c-10.7-1.1-22.059-2.693-34.74-4.871-23.686-4.069-48.391-9.573-74.549-15.4l-.033-.008c-6.312-1.406-12.838-2.86-19.471-4.319-29.408-6.472-61.312-13.152-95.326-18.163a727.6,727.6,0,0,0-106.92-8.256c-109.635,0-216.43,28.409-326.484,86.85-17.229,9.148-35.05,17.838-52.97,25.831-17.6,7.849-35.762,15.233-53.979,21.947-17.895,6.595-36.315,12.718-54.751,18.2-18.108,5.384-36.711,10.291-55.291,14.586A986.543,986.543,0,0,1,15821.794,1044.832Z" transform="translate(-15175.676 0)"/></clipPath><linearGradient id="b" y1="0.268" x2="1" y2="0.253" gradientUnits="objectBoundingBox"><stop offset="0" stop-color="#15aed6"/><stop offset="1" stop-color="#0b576b"/></linearGradient><linearGradient id="c" x1="1" y1="0.732" x2="0" y2="0.747" gradientUnits="objectBoundingBox"><stop offset="0" stop-color="#15aed6"/><stop offset="1" stop-color="#fff"/></linearGradient></defs><g class="b"><rect class="c" width="1954" height="1080" transform="translate(-17)"/><path class="d" d="M2019.486,433.7C2361.061,520,2668.605,300.776,3004.2,300.776s724.794,124.563,818.971,124.563,138.271-58.016,153.138-96.646c0,77.278-1.469,637.41-1.469,637.41l-1955.355-.594Z" transform="translate(-2039.6 436.622)"/><path class="e" d="M3979.2,824.286c-1217.939-169.645-1480.2,581.551-1958.266,169.8V272.011l1958.266.6Z" transform="translate(-2041.043 -648.029)"/><circle class="f" cx="274" cy="274" r="274" transform="translate(113 -337)"/></g></svg>