<svg xmlns="http://www.w3.org/2000/svg" xmlns:xlink="http://www.w3.org/1999/xlink" width="200" height="200" viewBox="0 0 200 200"><defs><style>.a{fill:#fff;}.b{fill:url(#a);}.c{fill:url(#d);}.d{fill:url(#e);}.e{filter:url(#b);}</style><linearGradient id="a" x1="0.987" y1="0.833" x2="0" gradientUnits="objectBoundingBox"><stop offset="0" stop-color="#13002a"/><stop offset="0.218" stop-color="#2a0054"/><stop offset="0.513" stop-color="#4d0094"/><stop offset="0.621" stop-color="#4b0597"/><stop offset="0.757" stop-color="#47149f"/><stop offset="0.907" stop-color="#412eae"/><stop offset="1" stop-color="#3c42b9"/></linearGradient><filter id="b" x="21.5" y="32.5" width="176.482" height="154.57" filterUnits="userSpaceOnUse"><feOffset dx="10" dy="10" input="SourceAlpha"/><feGaussianBlur stdDeviation="7.5" result="c"/><feFlood flood-opacity="0.2"/><feComposite operator="in" in2="c"/><feComposite in="SourceGraphic"/></filter><linearGradient id="d" x1="0.103" y1="0.136" x2="0.945" y2="0.925" gradientUnits="objectBoundingBox"><stop offset="0" stop-color="#7ae582"/><stop offset="1" stop-color="#06d6a0"/></linearGradient><linearGradient id="e" x1="0.5" y1="0" x2="0.5" y2="1" xlink:href="#a"/></defs><g transform="translate(-861 -1227)"><path class="a" d="M-14834.832,1355.163c0-54.882,69.062-29.023,84.871-97.095s74.309-30.079,98.551,2.638,27.4,111.342-28.459,145.114S-14834.832,1410.045-14834.832,1355.163Z" transform="translate(2281.154 16061.832) rotate(90)"/><g transform="translate(946.341 1099.285)"><g class="e" transform="matrix(1, 0, 0, 1, -85.34, 127.71)"><path class="b" d="M-12.992,172.715H-41.754a9.631,9.631,0,0,0-9.587,9.588v73.959a9.631,9.631,0,0,0,9.587,9.587H.2a24.758,24.758,0,0,1-6.913,11.756,2.742,2.742,0,0,0,.006,3.879,2.743,2.743,0,0,0,1.934.8H33.575a2.743,2.743,0,0,0,1.94-4.68,25.383,25.383,0,0,1-6.986-11.756H70.554a9.631,9.631,0,0,0,9.587-9.587V182.3a9.631,9.631,0,0,0-9.587-9.588H-12.992Z" transform="translate(85.34 -127.71)"/></g><rect class="a" width="109.569" height="60.263" rx="3" transform="translate(-40.384 183.673)"/><path class="c" d="M-8.007,233.444a8.37,8.37,0,0,1-8.663-8.033v-8.037a4.343,4.343,0,0,1,4.656-4.006,4.343,4.343,0,0,1,4,4.006v8.037H26.648v-8.037a4.345,4.345,0,0,1,8.665,0v8.037a8.378,8.378,0,0,1-8.665,8.037Zm13-20.088v-8.037H-.424a3.271,3.271,0,0,1-2.963-1.786,2.841,2.841,0,0,1,.55-3.242l9.745-10.046a3.554,3.554,0,0,1,4.83,0l9.745,10.046a2.846,2.846,0,0,1,.548,3.242,3.267,3.267,0,0,1-2.966,1.786H13.651v8.037a4.344,4.344,0,0,1-8.664,0Z" transform="translate(5.079 1.429)"/><path class="d" d="M.2,265.849a24.758,24.758,0,0,1-6.913,11.756,2.742,2.742,0,0,0,.006,3.879,2.743,2.743,0,0,0,1.934.8H33.575a2.743,2.743,0,0,0,1.94-4.68,24.769,24.769,0,0,1-6.986-11.756Z"/></g></g></svg>