<svg xmlns="http://www.w3.org/2000/svg" xmlns:xlink="http://www.w3.org/1999/xlink" width="200" height="200" viewBox="0 0 200 200"><defs><style>.a{fill:#fff;}.b{fill:url(#a);}.c{stroke:rgba(0,0,0,0);stroke-miterlimit:10;fill:url(#d);}.d{fill:url(#e);}.e{filter:url(#f);}.f{filter:url(#b);}</style><linearGradient id="a" x1="0.957" y1="0.979" x2="0.06" y2="0.028" gradientUnits="objectBoundingBox"><stop offset="0" stop-color="#13002a"/><stop offset="0.218" stop-color="#2a0054"/><stop offset="0.513" stop-color="#4d0094"/><stop offset="0.621" stop-color="#4b0597"/><stop offset="0.757" stop-color="#47149f"/><stop offset="0.907" stop-color="#412eae"/><stop offset="1" stop-color="#3c42b9"/></linearGradient><filter id="b" x="33.501" y="32.5" width="127.117" height="154.555" filterUnits="userSpaceOnUse"><feOffset dx="10" dy="10" input="SourceAlpha"/><feGaussianBlur stdDeviation="7.5" result="c"/><feFlood flood-opacity="0.2"/><feComposite operator="in" in2="c"/><feComposite in="SourceGraphic"/></filter><linearGradient id="d" x1="0.655" y1="1" x2="0" gradientUnits="objectBoundingBox"><stop offset="0" stop-color="#29dc89"/><stop offset="1" stop-color="#27fb6b"/></linearGradient><linearGradient id="e" x1="1.499" y1="1.315" x2="0" y2="0.178" xlink:href="#a"/><filter id="f" x="96.546" y="69.202" width="89.938" height="117.919" filterUnits="userSpaceOnUse"><feOffset dx="10" dy="10" input="SourceAlpha"/><feGaussianBlur stdDeviation="7.5" result="g"/><feFlood flood-opacity="0.2"/><feComposite operator="in" in2="g"/><feComposite in="SourceGraphic"/></filter></defs><g transform="translate(-598.999 -1227)"><path class="a" d="M18.069,98.3c-72.961-55.45,94.4-139.232,158.289-75.283s-25.91,63.031,9.395,96.443-23.276,89.588-87.91,79.3S91.032,153.755,18.069,98.3Z" transform="translate(598.999 1227)"/><g transform="translate(500.017 1083.88)"><g class="f" transform="matrix(1, 0, 0, 1, 98.98, 143.12)"><path class="b" d="M212.062,290.928v-11.35l5.5-50.717H227.1V201.42a13.315,13.315,0,0,0-13.3-13.3H158.283a13.313,13.313,0,0,0-13.3,13.3v82.955a13.314,13.314,0,0,0,13.3,13.3h55.751A12.263,12.263,0,0,1,212.062,290.928Z" transform="translate(-98.98 -143.12)"/></g><rect class="a" width="63.028" height="81.915" rx="3" transform="translate(154.53 197.635)"/><path class="c" d="M14671.982-1021.83a1,1,0,0,1-1-1v-5.009a1,1,0,0,1,1-1h28.912a1,1,0,0,1,1,1v5.009a1,1,0,0,1-1,1Zm0-12.009a1,1,0,0,1-1-1v-5.005a1,1,0,0,1,1-1h13.915a1,1,0,0,1,1,1v5.005a1,1,0,0,1-1,1Zm0-12.009a1,1,0,0,1-1-1v-5.009a1,1,0,0,1,1-1h45.912a1,1,0,0,1,1,1v5.009a1,1,0,0,1-1,1Zm0-12.009a1,1,0,0,1-1-1v-5.009a1,1,0,0,1,1-1h21.912a1,1,0,0,1,1,1v5.009a1,1,0,0,1-1,1Zm0-12.005a1,1,0,0,1-1-1v-5.009a1,1,0,0,1,1-1h45.912a1,1,0,0,1,1,1v5.009a1,1,0,0,1-1,1Zm0-12.009a1,1,0,0,1-1-1v-5.009a1,1,0,0,1,1-1h16.914a1,1,0,0,1,1,1v5.009a1,1,0,0,1-1,1Z" transform="translate(-14508.896 1293.947)"/><g class="e" transform="matrix(1, 0, 0, 1, 98.98, 143.12)"><path class="d" d="M246.147,224.822h-31.3a6.828,6.828,0,0,0-6.819,6.819v59.285a6.828,6.828,0,0,0,6.819,6.815h31.3a6.827,6.827,0,0,0,6.819-6.815V231.643A6.827,6.827,0,0,0,246.147,224.822Z" transform="translate(-98.98 -143.12)"/></g><rect class="a" width="30.612" height="52.5" rx="3" transform="translate(215.192 231.956)"/><path class="c" d="M14671.983-1042.381a1,1,0,0,1-1-1v-5.009a1,1,0,0,1,1-1h6.613a1,1,0,0,1,1,1v5.009a1,1,0,0,1-1,1Zm0-9.873a1,1,0,0,1-1-1v-5.008a1,1,0,0,1,1-1h22.612a1,1,0,0,1,1,1v5.008a1,1,0,0,1-1,1Zm0-9.873a1,1,0,0,1-1-1v-5.008a1,1,0,0,1,1-1h15.612a1,1,0,0,1,1,1v5.008a1,1,0,0,1-1,1Zm0-9.873a1,1,0,0,1-1-1v-5.008a1,1,0,0,1,1-1h8.612a1,1,0,0,1,1,1V-1073a1,1,0,0,1-1,1Zm0-9.869a1,1,0,0,1-1-1v-5.008a1,1,0,0,1,1-1h22.612a1,1,0,0,1,1,1v5.008a1,1,0,0,1-1,1Z" transform="translate(-14452.791 1323.836)"/><circle class="a" cx="5.33" cy="5.33" r="5.33" transform="translate(180.712 283.494)"/><circle class="a" cx="3.407" cy="3.407" r="3.407" transform="translate(227.089 287.339)"/></g></g></svg>