<svg xmlns="http://www.w3.org/2000/svg" width="142.117" height="35.078" viewBox="0 0 142.117 35.078"><defs><style>.a{fill:#fff;}</style></defs><g transform="translate(-40 -40)"><path class="a" d="M7.46-3.94H3.08A2.887,2.887,0,0,0,3.87-1.9,3.433,3.433,0,0,0,6-1.38a31.835,31.835,0,0,0,3.42-.24L9.6-.34A9.983,9.983,0,0,1,5.74.24,4.77,4.77,0,0,1,2.11-.92,5.842,5.842,0,0,1,1.04-4.9q0-2.84,1.05-3.98a4.536,4.536,0,0,1,3.47-1.14,5.2,5.2,0,0,1,3.26.82A2.968,2.968,0,0,1,9.84-6.74Q9.84-3.94,7.46-3.94Zm-4.4-1.5H6.94q.96,0,.96-1.3a1.539,1.539,0,0,0-.51-1.27,2.983,2.983,0,0,0-1.73-.37,2.647,2.647,0,0,0-2,.61A3.671,3.671,0,0,0,3.06-5.44ZM18.24-4.32H12.16V-5.8h6.08Zm7.28.48L22.8-4.52a3.149,3.149,0,0,1-1.72-.95,2.891,2.891,0,0,1-.5-1.83,2.4,2.4,0,0,1,.87-2.18,5.727,5.727,0,0,1,2.99-.54,28.827,28.827,0,0,1,4.16.34l-.16,1.4q-3.06-.1-3.7-.1a6.225,6.225,0,0,0-1.85.17q-.43.17-.43.91a2.059,2.059,0,0,0,.06.55.6.6,0,0,0,.31.35,2.806,2.806,0,0,0,.39.19q.14.05.62.19l2.76.68a3.456,3.456,0,0,1,1.76.91,2.714,2.714,0,0,1,.52,1.83,2.4,2.4,0,0,1-.95,2.27,7.048,7.048,0,0,1-3.29.55,25.788,25.788,0,0,1-3.88-.28L20.9-1.5q1.12.1,3.34.1a6.817,6.817,0,0,0,2.2-.23A.937.937,0,0,0,27-2.6a1.5,1.5,0,0,0-.08-.53.688.688,0,0,0-.34-.35,2.821,2.821,0,0,0-.41-.19Q26.02-3.72,25.52-3.84ZM32.9-9.76l.14,1.5a5.592,5.592,0,0,1,1.88-1.28,5.515,5.515,0,0,1,2.18-.48q3.32,0,3.32,5.2a6.476,6.476,0,0,1-.9,3.91A3.359,3.359,0,0,1,36.7.24a6.479,6.479,0,0,1-3.52-.98,15.488,15.488,0,0,1,.04,1.98V3.98H31.3V-9.76Zm.32,2.84v4.96a13.415,13.415,0,0,0,2.96.52,2,2,0,0,0,1.75-.69,5.115,5.115,0,0,0,.49-2.71,5.86,5.86,0,0,0-.45-2.72,1.621,1.621,0,0,0-1.53-.78A6.044,6.044,0,0,0,33.22-6.92Zm9.84-1.22-.18-1.42a27.9,27.9,0,0,1,4.74-.46,3.967,3.967,0,0,1,2.62.72,3.154,3.154,0,0,1,.84,2.5V0H49.56l-.22-1.54A5.292,5.292,0,0,1,45.44.18a3.147,3.147,0,0,1-2.17-.72,2.587,2.587,0,0,1-.81-2.04V-3.6a2.283,2.283,0,0,1,.72-1.8,2.97,2.97,0,0,1,2.04-.64h3.92V-6.8a1.62,1.62,0,0,0-.42-1.24,2.446,2.446,0,0,0-1.52-.34Q46.1-8.38,43.06-8.14Zm1.36,4.8v.52a1.374,1.374,0,0,0,.34,1.04,1.538,1.538,0,0,0,1.08.32,4.959,4.959,0,0,0,3.3-1.36V-4.58H45.58a1.171,1.171,0,0,0-.9.33A1.384,1.384,0,0,0,44.42-3.34Zm17,1.74L61.6-.3a9.888,9.888,0,0,1-3.4.54A4.725,4.725,0,0,1,54.59-.91q-1.05-1.15-1.05-3.97a5.922,5.922,0,0,1,1.05-3.98,4.7,4.7,0,0,1,3.61-1.16,8.99,8.99,0,0,1,3.24.5l-.26,1.24q-1.5-.1-2.64-.1a3,3,0,0,0-2.33.74,4.3,4.3,0,0,0-.65,2.76,4.3,4.3,0,0,0,.65,2.76,3,3,0,0,0,2.33.74A16.656,16.656,0,0,0,61.42-1.6Zm8.2-2.34H65.24a2.887,2.887,0,0,0,.79,2.04,3.433,3.433,0,0,0,2.13.52,31.835,31.835,0,0,0,3.42-.24l.18,1.28A9.983,9.983,0,0,1,67.9.24,4.77,4.77,0,0,1,64.27-.92,5.842,5.842,0,0,1,63.2-4.9q0-2.84,1.05-3.98a4.536,4.536,0,0,1,3.47-1.14,5.2,5.2,0,0,1,3.26.82A2.968,2.968,0,0,1,72-6.74Q72-3.94,69.62-3.94Zm-4.4-1.5H69.1q.96,0,.96-1.3a1.539,1.539,0,0,0-.51-1.27,2.983,2.983,0,0,0-1.73-.37,2.647,2.647,0,0,0-2,.61A3.671,3.671,0,0,0,65.22-5.44Z" transform="translate(110.117 66)"/><path class="a" d="M549.031,613.022a13.527,13.527,0,0,0-12.186,7.559c-.081.162-.205.451-.369.846-3.566,8.56-8.3,12.9-14.077,12.9h-3.064a5.81,5.81,0,0,1-.9-11.55c2.328-.4,3.775-1.527,4.3-3.347a11.7,11.7,0,0,1,11.187-8.4,11,11,0,0,1,4.68.972c1.175-1.6,4.489-2.984,6.3-3.005a17.545,17.545,0,0,0-27.573,7.986,11.7,11.7,0,0,0,2,23.233H522.4c5.762,0,13.826-2.868,19.517-16.528.092-.223.162-.395.207-.491a7.708,7.708,0,1,1,6.908,11.127h-7.5a22.156,22.156,0,0,1-5.37,5.893h12.866a13.6,13.6,0,1,0,0-27.2Z" transform="translate(-467.631 -565.142)"/></g></svg>