<svg xmlns="http://www.w3.org/2000/svg" width="69.796" height="60" viewBox="0 0 69.796 60"><defs><style>.a{fill:#fff;}</style></defs><g transform="translate(-105 -34)"><path class="a" d="M7.355-3.94H3.047A2.912,2.912,0,0,0,3.824-1.9a3.334,3.334,0,0,0,2.1.52,30.806,30.806,0,0,0,3.364-.24L9.46-.34a9.673,9.673,0,0,1-3.8.58A4.644,4.644,0,0,1,2.092-.92,5.912,5.912,0,0,1,1.04-4.9q0-2.84,1.033-3.98a4.418,4.418,0,0,1,3.413-1.14,5.054,5.054,0,0,1,3.207.82,2.991,2.991,0,0,1,1,2.46Q9.7-3.94,7.355-3.94ZM3.027-5.44H6.843q.944,0,.944-1.3a1.552,1.552,0,0,0-.5-1.27,2.9,2.9,0,0,0-1.7-.37,2.576,2.576,0,0,0-1.967.61A3.716,3.716,0,0,0,3.027-5.44ZM17.958-4.32h-5.98V-5.8h5.98Zm7.161.48-2.675-.68a3.086,3.086,0,0,1-1.692-.95,2.926,2.926,0,0,1-.492-1.83,2.422,2.422,0,0,1,.856-2.18,5.554,5.554,0,0,1,2.941-.54,27.9,27.9,0,0,1,4.092.34l-.157,1.4q-3.01-.1-3.639-.1a6.027,6.027,0,0,0-1.82.17q-.423.17-.423.91a2.092,2.092,0,0,0,.059.55.6.6,0,0,0,.3.35,2.741,2.741,0,0,0,.384.19q.138.05.61.19l2.715.68a3.382,3.382,0,0,1,1.731.91,2.746,2.746,0,0,1,.511,1.83,2.421,2.421,0,0,1-.934,2.27,6.833,6.833,0,0,1-3.236.55,24.957,24.957,0,0,1-3.816-.28l.138-1.44q1.1.1,3.285.1a6.6,6.6,0,0,0,2.164-.23.939.939,0,0,0,.551-.97,1.527,1.527,0,0,0-.079-.53.683.683,0,0,0-.334-.35,2.753,2.753,0,0,0-.4-.19Q25.61-3.72,25.118-3.84Zm7.259-5.92.138,1.5a5.5,5.5,0,0,1,1.849-1.28,5.35,5.35,0,0,1,2.144-.48q3.266,0,3.266,5.2a6.56,6.56,0,0,1-.885,3.91A3.279,3.279,0,0,1,36.115.24a6.3,6.3,0,0,1-3.462-.98,15.746,15.746,0,0,1,.039,1.98V3.98H30.8V-9.76Zm.315,2.84v4.96a13,13,0,0,0,2.911.52,1.956,1.956,0,0,0,1.721-.69,5.187,5.187,0,0,0,.482-2.71,5.946,5.946,0,0,0-.443-2.72,1.588,1.588,0,0,0-1.5-.78A5.9,5.9,0,0,0,32.692-6.92Zm9.679-1.22-.177-1.42a27,27,0,0,1,4.662-.46,3.857,3.857,0,0,1,2.577.72,3.186,3.186,0,0,1,.826,2.5V0h-1.5l-.216-1.54A5.166,5.166,0,0,1,44.712.18a3.063,3.063,0,0,1-2.134-.72,2.609,2.609,0,0,1-.8-2.04V-3.6a2.3,2.3,0,0,1,.708-1.8A2.889,2.889,0,0,1,44.5-6.04h3.856V-6.8a1.636,1.636,0,0,0-.413-1.24,2.375,2.375,0,0,0-1.5-.34Q45.361-8.38,42.371-8.14Zm1.338,4.8v.52a1.389,1.389,0,0,0,.334,1.04,1.5,1.5,0,0,0,1.062.32,4.835,4.835,0,0,0,3.246-1.36V-4.58h-3.5a1.142,1.142,0,0,0-.885.33A1.4,1.4,0,0,0,43.708-3.34ZM60.429-1.6l.177,1.3a9.581,9.581,0,0,1-3.344.54A4.6,4.6,0,0,1,53.711-.91a5.951,5.951,0,0,1-1.033-3.97,5.994,5.994,0,0,1,1.033-3.98,4.576,4.576,0,0,1,3.551-1.16,8.711,8.711,0,0,1,3.187.5l-.256,1.24q-1.475-.1-2.6-.1a2.922,2.922,0,0,0-2.292.74,4.358,4.358,0,0,0-.639,2.76A4.358,4.358,0,0,0,55.3-2.12a2.922,2.922,0,0,0,2.292.74A16.119,16.119,0,0,0,60.429-1.6Zm8.065-2.34H64.187a2.912,2.912,0,0,0,.777,2.04,3.334,3.334,0,0,0,2.1.52,30.807,30.807,0,0,0,3.364-.24L70.6-.34a9.673,9.673,0,0,1-3.8.58,4.644,4.644,0,0,1-3.57-1.16A5.912,5.912,0,0,1,62.18-4.9q0-2.84,1.033-3.98a4.418,4.418,0,0,1,3.413-1.14,5.054,5.054,0,0,1,3.207.82,2.991,2.991,0,0,1,1,2.46Q70.836-3.94,68.495-3.94Zm-4.328-1.5h3.816q.944,0,.944-1.3a1.552,1.552,0,0,0-.5-1.27,2.9,2.9,0,0,0-1.7-.37,2.576,2.576,0,0,0-1.967.61A3.716,3.716,0,0,0,64.167-5.44Z" transform="translate(103.96 90.02)"/><path class="a" d="M548.352,612.892a13.3,13.3,0,0,0-11.987,7.435c-.079.159-.2.443-.363.832-3.508,8.42-8.167,12.69-13.846,12.69h-3.014a5.714,5.714,0,0,1-.881-11.36c2.289-.4,3.713-1.5,4.231-3.292a11.508,11.508,0,0,1,11-8.258,10.821,10.821,0,0,1,4.6.956c1.155-1.577,4.416-2.935,6.2-2.956a17.257,17.257,0,0,0-27.12,7.855,11.51,11.51,0,0,0,1.967,22.851h3.014c5.668,0,13.6-2.821,19.2-16.257.091-.219.159-.388.2-.483a7.581,7.581,0,1,1,6.8,10.944h-7.373a21.791,21.791,0,0,1-5.282,5.8h12.655a13.376,13.376,0,1,0,0-26.752Z" transform="translate(-394.762 -571.142)"/></g></svg>